<svg xmlns="http://www.w3.org/2000/svg" width="880" height="440" viewBox="0 0 880 440" font-family="ui-monospace,SFMono-Regular,Menlo,Consolas,monospace">
<rect width="880" height="440" fill="#0e1116"/>
<rect x="0.0" y="0.0" width="88.7" height="110.1" fill="#2f6fed" stroke="#0e1116" stroke-width="2"><title>pkg41: 44 KB</title></rect>
<text x="7.0" y="17.0" fill="#f8fafc" font-size="12" font-weight="600">pkg41</text>
<text x="7.0" y="31.0" fill="#f8fafc" font-size="11" fill-opacity="0.78">44 KB</text>
<rect x="0.0" y="110.1" width="88.7" height="110.0" fill="#12a594" stroke="#0e1116" stroke-width="2"><title>pkg40: 44 KB</title></rect>
<text x="7.0" y="127.1" fill="#f8fafc" font-size="12" font-weight="600">pkg40</text>
<text x="7.0" y="141.1" fill="#f8fafc" font-size="11" fill-opacity="0.78">44 KB</text>
<rect x="0.0" y="220.1" width="88.7" height="110.0" fill="#b45309" stroke="#0e1116" stroke-width="2"><title>pkg39: 44 KB</title></rect>
<text x="7.0" y="237.1" fill="#f8fafc" font-size="12" font-weight="600">pkg39</text>
<text x="7.0" y="251.1" fill="#f8fafc" font-size="11" fill-opacity="0.78">44 KB</text>
<rect x="0.0" y="330.1" width="88.7" height="109.9" fill="#6d28d9" stroke="#0e1116" stroke-width="2"><title>pkg38: 44 KB</title></rect>
<text x="7.0" y="347.1" fill="#f8fafc" font-size="12" font-weight="600">pkg38</text>
<text x="7.0" y="361.1" fill="#f8fafc" font-size="11" fill-opacity="0.78">44 KB</text>
<rect x="88.7" y="0.0" width="88.6" height="110.1" fill="#e11d48" stroke="#0e1116" stroke-width="2"><title>pkg37: 44 KB</title></rect>
<text x="95.7" y="17.0" fill="#f8fafc" font-size="12" font-weight="600">pkg37</text>
<text x="95.7" y="31.0" fill="#f8fafc" font-size="11" fill-opacity="0.78">44 KB</text>
<rect x="88.7" y="110.1" width="88.6" height="110.0" fill="#0284c7" stroke="#0e1116" stroke-width="2"><title>pkg36: 44 KB</title></rect>
<text x="95.7" y="127.1" fill="#f8fafc" font-size="12" font-weight="600">pkg36</text>
<text x="95.7" y="141.1" fill="#f8fafc" font-size="11" fill-opacity="0.78">44 KB</text>
<rect x="88.7" y="220.1" width="88.6" height="110.0" fill="#4d7c0f" stroke="#0e1116" stroke-width="2"><title>pkg35: 44 KB</title></rect>
<text x="95.7" y="237.1" fill="#f8fafc" font-size="12" font-weight="600">pkg35</text>
<text x="95.7" y="251.1" fill="#f8fafc" font-size="11" fill-opacity="0.78">44 KB</text>
<rect x="88.7" y="330.1" width="88.6" height="109.9" fill="#db2777" stroke="#0e1116" stroke-width="2"><title>pkg34: 44 KB</title></rect>
<text x="95.7" y="347.1" fill="#f8fafc" font-size="12" font-weight="600">pkg34</text>
<text x="95.7" y="361.1" fill="#f8fafc" font-size="11" fill-opacity="0.78">44 KB</text>
<rect x="177.3" y="0.0" width="88.4" height="110.1" fill="#0891b2" stroke="#0e1116" stroke-width="2"><title>pkg33: 44 KB</title></rect>
<text x="184.3" y="17.0" fill="#f8fafc" font-size="12" font-weight="600">pkg33</text>
<text x="184.3" y="31.0" fill="#f8fafc" font-size="11" fill-opacity="0.78">44 KB</text>
<rect x="177.3" y="110.1" width="88.4" height="110.0" fill="#c2410c" stroke="#0e1116" stroke-width="2"><title>pkg32: 44 KB</title></rect>
<text x="184.3" y="127.1" fill="#f8fafc" font-size="12" font-weight="600">pkg32</text>
<text x="184.3" y="141.1" fill="#f8fafc" font-size="11" fill-opacity="0.78">44 KB</text>
<rect x="177.3" y="220.1" width="88.4" height="110.0" fill="#4f46e5" stroke="#0e1116" stroke-width="2"><title>pkg31: 44 KB</title></rect>
<text x="184.3" y="237.1" fill="#f8fafc" font-size="12" font-weight="600">pkg31</text>
<text x="184.3" y="251.1" fill="#f8fafc" font-size="11" fill-opacity="0.78">44 KB</text>
<rect x="177.3" y="330.1" width="88.4" height="109.9" fill="#059669" stroke="#0e1116" stroke-width="2"><title>pkg30: 44 KB</title></rect>
<text x="184.3" y="347.1" fill="#f8fafc" font-size="12" font-weight="600">pkg30</text>
<text x="184.3" y="361.1" fill="#f8fafc" font-size="11" fill-opacity="0.78">44 KB</text>
<rect x="265.7" y="0.0" width="88.2" height="110.1" fill="#2f6fed" stroke="#0e1116" stroke-width="2"><title>pkg29: 44 KB</title></rect>
<text x="272.7" y="17.0" fill="#f8fafc" font-size="12" font-weight="600">pkg29</text>
<text x="272.7" y="31.0" fill="#f8fafc" font-size="11" fill-opacity="0.78">44 KB</text>
<rect x="265.7" y="110.1" width="88.2" height="110.0" fill="#12a594" stroke="#0e1116" stroke-width="2"><title>pkg28: 44 KB</title></rect>
<text x="272.7" y="127.1" fill="#f8fafc" font-size="12" font-weight="600">pkg28</text>
<text x="272.7" y="141.1" fill="#f8fafc" font-size="11" fill-opacity="0.78">44 KB</text>
<rect x="265.7" y="220.1" width="88.2" height="110.0" fill="#b45309" stroke="#0e1116" stroke-width="2"><title>pkg27: 44 KB</title></rect>
<text x="272.7" y="237.1" fill="#f8fafc" font-size="12" font-weight="600">pkg27</text>
<text x="272.7" y="251.1" fill="#f8fafc" font-size="11" fill-opacity="0.78">44 KB</text>
<rect x="265.7" y="330.1" width="88.2" height="109.9" fill="#6d28d9" stroke="#0e1116" stroke-width="2"><title>pkg26: 44 KB</title></rect>
<text x="272.7" y="347.1" fill="#f8fafc" font-size="12" font-weight="600">pkg26</text>
<text x="272.7" y="361.1" fill="#f8fafc" font-size="11" fill-opacity="0.78">44 KB</text>
<rect x="354.0" y="0.0" width="88.1" height="110.1" fill="#e11d48" stroke="#0e1116" stroke-width="2"><title>pkg25: 44 KB</title></rect>
<text x="361.0" y="17.0" fill="#f8fafc" font-size="12" font-weight="600">pkg25</text>
<text x="361.0" y="31.0" fill="#f8fafc" font-size="11" fill-opacity="0.78">44 KB</text>
<rect x="354.0" y="110.1" width="88.1" height="110.0" fill="#0284c7" stroke="#0e1116" stroke-width="2"><title>pkg24: 44 KB</title></rect>
<text x="361.0" y="127.1" fill="#f8fafc" font-size="12" font-weight="600">pkg24</text>
<text x="361.0" y="141.1" fill="#f8fafc" font-size="11" fill-opacity="0.78">44 KB</text>
<rect x="354.0" y="220.1" width="88.1" height="110.0" fill="#4d7c0f" stroke="#0e1116" stroke-width="2"><title>pkg23: 44 KB</title></rect>
<text x="361.0" y="237.1" fill="#f8fafc" font-size="12" font-weight="600">pkg23</text>
<text x="361.0" y="251.1" fill="#f8fafc" font-size="11" fill-opacity="0.78">44 KB</text>
<rect x="354.0" y="330.1" width="88.1" height="109.9" fill="#db2777" stroke="#0e1116" stroke-width="2"><title>pkg22: 44 KB</title></rect>
<text x="361.0" y="347.1" fill="#f8fafc" font-size="12" font-weight="600">pkg22</text>
<text x="361.0" y="361.1" fill="#f8fafc" font-size="11" fill-opacity="0.78">44 KB</text>
<rect x="442.1" y="0.0" width="109.6" height="88.3" fill="#0891b2" stroke="#0e1116" stroke-width="2"><title>pkg21: 43 KB</title></rect>
<text x="449.1" y="17.0" fill="#f8fafc" font-size="12" font-weight="600">pkg21</text>
<text x="449.1" y="31.0" fill="#f8fafc" font-size="11" fill-opacity="0.78">43 KB</text>
<rect x="551.6" y="0.0" width="109.5" height="88.3" fill="#c2410c" stroke="#0e1116" stroke-width="2"><title>pkg20: 43 KB</title></rect>
<text x="558.6" y="17.0" fill="#f8fafc" font-size="12" font-weight="600">pkg20</text>
<text x="558.6" y="31.0" fill="#f8fafc" font-size="11" fill-opacity="0.78">43 KB</text>
<rect x="661.1" y="0.0" width="109.5" height="88.3" fill="#4f46e5" stroke="#0e1116" stroke-width="2"><title>pkg19: 43 KB</title></rect>
<text x="668.1" y="17.0" fill="#f8fafc" font-size="12" font-weight="600">pkg19</text>
<text x="668.1" y="31.0" fill="#f8fafc" font-size="11" fill-opacity="0.78">43 KB</text>
<rect x="770.6" y="0.0" width="109.4" height="88.3" fill="#059669" stroke="#0e1116" stroke-width="2"><title>pkg18: 43 KB</title></rect>
<text x="777.6" y="17.0" fill="#f8fafc" font-size="12" font-weight="600">pkg18</text>
<text x="777.6" y="31.0" fill="#f8fafc" font-size="11" fill-opacity="0.78">43 KB</text>
<rect x="442.1" y="88.3" width="109.8" height="88.0" fill="#2f6fed" stroke="#0e1116" stroke-width="2"><title>pkg17: 43 KB</title></rect>
<text x="449.1" y="105.3" fill="#f8fafc" font-size="12" font-weight="600">pkg17</text>
<text x="449.1" y="119.3" fill="#f8fafc" font-size="11" fill-opacity="0.78">43 KB</text>
<rect x="442.1" y="176.3" width="109.8" height="87.9" fill="#12a594" stroke="#0e1116" stroke-width="2"><title>pkg16: 43 KB</title></rect>
<text x="449.1" y="193.3" fill="#f8fafc" font-size="12" font-weight="600">pkg16</text>
<text x="449.1" y="207.3" fill="#f8fafc" font-size="11" fill-opacity="0.78">43 KB</text>
<rect x="442.1" y="264.2" width="109.8" height="87.9" fill="#b45309" stroke="#0e1116" stroke-width="2"><title>pkg15: 43 KB</title></rect>
<text x="449.1" y="281.2" fill="#f8fafc" font-size="12" font-weight="600">pkg15</text>
<text x="449.1" y="295.2" fill="#f8fafc" font-size="11" fill-opacity="0.78">43 KB</text>
<rect x="442.1" y="352.1" width="109.8" height="87.9" fill="#6d28d9" stroke="#0e1116" stroke-width="2"><title>pkg14: 43 KB</title></rect>
<text x="449.1" y="369.1" fill="#f8fafc" font-size="12" font-weight="600">pkg14</text>
<text x="449.1" y="383.1" fill="#f8fafc" font-size="11" fill-opacity="0.78">43 KB</text>
<rect x="551.9" y="88.3" width="109.4" height="88.1" fill="#e11d48" stroke="#0e1116" stroke-width="2"><title>pkg13: 43 KB</title></rect>
<text x="558.9" y="105.3" fill="#f8fafc" font-size="12" font-weight="600">pkg13</text>
<text x="558.9" y="119.3" fill="#f8fafc" font-size="11" fill-opacity="0.78">43 KB</text>
<rect x="661.3" y="88.3" width="109.4" height="88.1" fill="#0284c7" stroke="#0e1116" stroke-width="2"><title>pkg12: 43 KB</title></rect>
<text x="668.3" y="105.3" fill="#f8fafc" font-size="12" font-weight="600">pkg12</text>
<text x="668.3" y="119.3" fill="#f8fafc" font-size="11" fill-opacity="0.78">43 KB</text>
<rect x="770.7" y="88.3" width="109.3" height="88.1" fill="#4d7c0f" stroke="#0e1116" stroke-width="2"><title>pkg11: 43 KB</title></rect>
<text x="777.7" y="105.3" fill="#f8fafc" font-size="12" font-weight="600">pkg11</text>
<text x="777.7" y="119.3" fill="#f8fafc" font-size="11" fill-opacity="0.78">43 KB</text>
<rect x="551.9" y="176.4" width="109.5" height="87.9" fill="#db2777" stroke="#0e1116" stroke-width="2"><title>pkg10: 43 KB</title></rect>
<text x="558.9" y="193.4" fill="#f8fafc" font-size="12" font-weight="600">pkg10</text>
<text x="558.9" y="207.4" fill="#f8fafc" font-size="11" fill-opacity="0.78">43 KB</text>
<rect x="551.9" y="264.3" width="109.5" height="87.9" fill="#0891b2" stroke="#0e1116" stroke-width="2"><title>pkg9: 43 KB</title></rect>
<text x="558.9" y="281.3" fill="#f8fafc" font-size="12" font-weight="600">pkg9</text>
<text x="558.9" y="295.3" fill="#f8fafc" font-size="11" fill-opacity="0.78">43 KB</text>
<rect x="551.9" y="352.2" width="109.5" height="87.8" fill="#c2410c" stroke="#0e1116" stroke-width="2"><title>pkg8: 43 KB</title></rect>
<text x="558.9" y="369.2" fill="#f8fafc" font-size="12" font-weight="600">pkg8</text>
<text x="558.9" y="383.2" fill="#f8fafc" font-size="11" fill-opacity="0.78">43 KB</text>
<rect x="661.4" y="176.4" width="109.3" height="87.9" fill="#4f46e5" stroke="#0e1116" stroke-width="2"><title>pkg7: 43 KB</title></rect>
<text x="668.4" y="193.4" fill="#f8fafc" font-size="12" font-weight="600">pkg7</text>
<text x="668.4" y="207.4" fill="#f8fafc" font-size="11" fill-opacity="0.78">43 KB</text>
<rect x="770.7" y="176.4" width="109.3" height="87.9" fill="#059669" stroke="#0e1116" stroke-width="2"><title>pkg6: 43 KB</title></rect>
<text x="777.7" y="193.4" fill="#f8fafc" font-size="12" font-weight="600">pkg6</text>
<text x="777.7" y="207.4" fill="#f8fafc" font-size="11" fill-opacity="0.78">43 KB</text>
<rect x="661.4" y="264.4" width="109.3" height="87.8" fill="#2f6fed" stroke="#0e1116" stroke-width="2"><title>pkg5: 43 KB</title></rect>
<text x="668.4" y="281.4" fill="#f8fafc" font-size="12" font-weight="600">pkg5</text>
<text x="668.4" y="295.4" fill="#f8fafc" font-size="11" fill-opacity="0.78">43 KB</text>
<rect x="661.4" y="352.2" width="109.3" height="87.8" fill="#12a594" stroke="#0e1116" stroke-width="2"><title>pkg4: 43 KB</title></rect>
<text x="668.4" y="369.2" fill="#f8fafc" font-size="12" font-weight="600">pkg4</text>
<text x="668.4" y="383.2" fill="#f8fafc" font-size="11" fill-opacity="0.78">43 KB</text>
<rect x="770.7" y="264.4" width="109.3" height="87.8" fill="#b45309" stroke="#0e1116" stroke-width="2"><title>pkg399: 43 KB</title></rect>
<text x="777.7" y="281.4" fill="#f8fafc" font-size="12" font-weight="600">pkg399</text>
<text x="777.7" y="295.4" fill="#f8fafc" font-size="11" fill-opacity="0.78">43 KB</text>
<rect x="770.7" y="352.2" width="109.3" height="87.8" fill="#6d28d9" stroke="#0e1116" stroke-width="2"><title>pkg3: 43 KB</title></rect>
<text x="777.7" y="369.2" fill="#f8fafc" font-size="12" font-weight="600">pkg3</text>
<text x="777.7" y="383.2" fill="#f8fafc" font-size="11" fill-opacity="0.78">43 KB</text>
<rect x="0" y="414" width="880" height="26" fill="#0e1116" fill-opacity="0.86"/>
<line x1="0" y1="414" x2="880" y2="414" stroke="#26313f" stroke-width="1"/>
<text x="12" y="431" fill="#9aa7b8" font-size="11">synthetic monorepo fixture · area = declared bytes · 1,500 assets · 8,041 modules · 40 of 400 packages · dimension stat</text>
</svg>
